<svg id="Layer_1" data-name="Layer 1" xmlns="http://www.w3.org/2000/svg" viewBox="0 0 512 512"><defs><style>.cls-1{fill:#71c6c4;}.cls-2{opacity:0.08;}.cls-3{fill:#17292d;}.cls-4{fill:#cad8dd;}.cls-5{fill:#dde5e8;}.cls-6{opacity:0.06;}</style></defs><title>woman-1-flat</title><path class="cls-1" d="M343.58,396.8H168.42a74.78,74.78,0,0,1-74.68-78.71L102.4,153.6A153.6,153.6,0,0,1,256,0h0A153.6,153.6,0,0,1,409.6,153.6l8.66,164.49A74.78,74.78,0,0,1,343.58,396.8Z"/><g class="cls-2"><path class="cls-3" d="M418.26,318.09,409.6,153.6A153.64,153.64,0,0,0,226,2.95,153.64,153.64,0,0,1,349.64,153.6l8.66,164.49a74.78,74.78,0,0,1-74.67,78.71h60A74.78,74.78,0,0,0,418.26,318.09Z"/></g><path class="cls-4" d="M288,307.2H224A172.8,172.8,0,0,0,51.2,480h0a32,32,0,0,0,32,32H428.8a32,32,0,0,0,32-32h0A172.8,172.8,0,0,0,288,307.2Z"/><path class="cls-5" d="M358.4,160v32A102.2,102.2,0,0,1,320,271.93V332.8l-64,38.4-64-38.4V271.24a106.94,106.94,0,0,1-38.4-82.13V160a32,32,0,0,1,32-32H326.4A32,32,0,0,1,358.4,160Z"/><g class="cls-6"><path class="cls-3" d="M326.4,128h-64a32,32,0,0,1,32,32v32a102.34,102.34,0,0,1-70.28,97.12A98.46,98.46,0,0,0,251,294.28,102.4,102.4,0,0,0,358.4,192V160A32,32,0,0,0,326.4,128Z"/></g></svg>